# xmcd
#
# Track frame offsets:
#	150
#	11332
#	23236
#	36534
#	50247
#	58774
#	69289
#	82782
#	93762
#	119798
#	131140
#	141368
#	142512
#	154326
#	175310
#	196910
#	210314
#	220389
#	230266
#	234857
#	247166
#	259569
#	263778
#	274280
#	287436
#	299219
#	316163
#	321846
#	339115
#	356499
#	359428
#	374104
#
# Disc length: 5142 seconds
#
# Revision: 6
# Processed by: cddbd v1.5.2PL0 Copyright (c) Steve Scherf et al.
# Submitted via: EZCDAudioConverter 1.3.4.1
#
DISCID=f6141420
DTITLE=Various Artist - ...Next Stop Is Vietnam - The War On Record: 1961-2008 [CD5: 
DTITLE=It's America, Love It Or Leave It)
DYEAR=2010
DGENRE=Rock - Funk - Soul - Blues - Pop - Folk - Country
TTITLE0=Dave Dudley - What We're Fighting For
TTITLE1=Jack Sanders - The Viet Nam Blues
TTITLE2=Derrik Roberts - There Won't Be Any Snow (Christmas In The Jungle)
TTITLE3=Jimmy Holiday - I Wanna Help Hurry My Brothers Home
TTITLE4=Ernest Tubb - It's America, Love It Or Leave It
TTITLE5=Johnnie Wright - Keep The Flag Flying
TTITLE6=Billy Carr - What's Come Over This World
TTITLE7=Stonewall Jackson - The Minute Men (Are Turning In Their Graves)
TTITLE8=Johnny Sea - Day For Decision
TTITLE9=Beach Bums - The Ballad Of The Yellow Beret
TTITLE10=Pat Boone - Wish You Were Here, Buddy
TTITLE11=Gen. Westmoreland: ''Militarily we have never been in a better rel
TTITLE11=ative position in South Vietnam'' (1968)
TTITLE12=Jim Bullington - We Are Winning
TTITLE13=Little Kathy Hoffman - Kathy's Letter
TTITLE14=Lee Gillson - Dear Mr. President
TTITLE15=Mark Dauler - Letter From A Boy In Vietnam
TTITLE16=Garland Frady - Ballad Of The Unknown Soldier
TTITLE17=Bill Floyd - Freedom's Cause
TTITLE18=PSA for patriotism by Anita Bryant
TTITLE19=Bob Withers - ''What The...'' (Is Going On In Washington)
TTITLE20=Merle Haggard and The Strangers - Okie From Muskogee
TTITLE21=Vice President Spiro Agnew becomes the outspoken voice of the Nixo
TTITLE21=n administration (January 1970)
TTITLE22=Tommy Kizziah - Keep Our Country Free
TTITLE23=Merle Haggard and The Strangers - The Fightin' Side Of Me
TTITLE24=The Senators - War's Cross
TTITLE25=Matt McKinney - Ballad Of My Lai
TTITLE26=Mike Wallace, CBS News, interviews Paul Meadlo about My Lai (Novem
TTITLE26=ber 24, 1969)
TTITLE27=Thom Parrott - Pinkville Helicopter
TTITLE28=C Company featuring Terry Nelson - Battle Hymn Of Lt. Calley
TTITLE29=Lt. Calley found guilty of crimes at My Lai (March 29, 1971)
TTITLE30=Adams Brothers - The U.S.A. Soldier
TTITLE31=Free Blue - Set Calley Free (Part 1)
EXTD=
EXTT0=
EXTT1=
EXTT2=
EXTT3=
EXTT4=
EXTT5=
EXTT6=
EXTT7=
EXTT8=
EXTT9=
EXTT10=
EXTT11=
EXTT12=
EXTT13=
EXTT14=
EXTT15=
EXTT16=
EXTT17=
EXTT18=
EXTT19=
EXTT20=
EXTT21=
EXTT22=
EXTT23=
EXTT24=
EXTT25=
EXTT26=
EXTT27=
EXTT28=
EXTT29=
EXTT30=
EXTT31=
PLAYORDER=
